<svg xmlns="http://www.w3.org/2000/svg" width="256" height="256" viewBox="0 0 256 256" version="1.1"><path d="M 65.909 79.896 C 24.068 93.283, 24.819 164.097, 66.932 176.412 C 92.590 183.915, 118.900 160.560, 118.985 130.205 C 119.013 120.114, 96.494 114.510, 87.389 122.342 C 80.459 128.302, 85.663 136, 96.623 136 C 102.906 136, 103.111 136.079, 102.471 138.250 C 91.549 175.270, 50.671 167.182, 50.671 128 C 50.671 98.088, 76.963 82.915, 94.812 102.526 C 103.654 112.242, 115.360 103.716, 107.438 93.330 C 98.046 81.016, 80.325 75.284, 65.909 79.896 M 137.924 80.581 C 133.818 84.951, 134.168 172.027, 138.306 175.587 C 141.889 178.668, 145.437 178.654, 148.545 175.545 C 152.416 171.675, 152.416 84.325, 148.545 80.455 C 145.284 77.193, 141.059 77.244, 137.924 80.581 M 171.229 78.669 C 167.258 80.267, 167 83.279, 167 128 C 167 175.054, 167.136 176.243, 172.659 177.629 C 181.674 179.892, 182.967 176.275, 182.985 148.750 C 183 126, 183 126, 199.365 126 C 218.591 126, 221 125.109, 221 118 C 221 110.891, 218.591 110, 199.365 110 C 173.080 110, 173.597 94.307, 199.898 93.816 C 219.317 93.453, 221 92.823, 221 85.918 C 221 79.050, 183.761 73.627, 171.229 78.669" stroke="none" fill="#f9fafc" fill-rule="evenodd"/><path d="M 35.919 23.833 C 19.570 28.101, 6.653 40.939, 1.612 57.932 C -0.818 66.121, -0.818 189.879, 1.612 198.068 C 6.887 215.848, 21.162 229.217, 38.799 232.895 C 47.680 234.747, 210.754 234.382, 218.769 232.492 C 236.034 228.422, 248.719 216.101, 255.015 197.287 C 257.227 190.674, 258.165 61, 256 61 C 255.450 61, 255 60.152, 255 59.116 C 255 46.695, 235.395 27.428, 218.769 23.508 C 208.614 21.113, 45.223 21.404, 35.919 23.833 M 0.472 128 C 0.472 164.575, 0.597 179.537, 0.750 161.250 C 0.902 142.962, 0.902 113.037, 0.750 94.750 C 0.597 76.462, 0.472 91.425, 0.472 128 M 65.909 79.896 C 24.068 93.283, 24.819 164.097, 66.932 176.412 C 92.590 183.915, 118.900 160.560, 118.985 130.205 C 119.013 120.114, 96.494 114.510, 87.389 122.342 C 80.459 128.302, 85.663 136, 96.623 136 C 102.906 136, 103.111 136.079, 102.471 138.250 C 91.549 175.270, 50.671 167.182, 50.671 128 C 50.671 98.088, 76.963 82.915, 94.812 102.526 C 103.654 112.242, 115.360 103.716, 107.438 93.330 C 98.046 81.016, 80.325 75.284, 65.909 79.896 M 137.924 80.581 C 133.818 84.951, 134.168 172.027, 138.306 175.587 C 141.889 178.668, 145.437 178.654, 148.545 175.545 C 152.416 171.675, 152.416 84.325, 148.545 80.455 C 145.284 77.193, 141.059 77.244, 137.924 80.581 M 171.229 78.669 C 167.258 80.267, 167 83.279, 167 128 C 167 175.054, 167.136 176.243, 172.659 177.629 C 181.674 179.892, 182.967 176.275, 182.985 148.750 C 183 126, 183 126, 199.365 126 C 218.591 126, 221 125.109, 221 118 C 221 110.891, 218.591 110, 199.365 110 C 173.080 110, 173.597 94.307, 199.898 93.816 C 219.317 93.453, 221 92.823, 221 85.918 C 221 79.050, 183.761 73.627, 171.229 78.669" stroke="none" fill="#5484fc" fill-rule="evenodd"/></svg>